<?xml version="1.0" encoding="UTF-8" standalone="no"?>
<svg
   width="64px"
   height="64px"
   viewBox="0 0 64 64"
   version="1.1"
   id="svg974"
   sodipodi:docname="liferay.svg"
   inkscape:version="1.2.2 (b0a8486541, 2022-12-01)"
   xmlns:inkscape="http://www.inkscape.org/namespaces/inkscape"
   xmlns:sodipodi="http://sodipodi.sourceforge.net/DTD/sodipodi-0.dtd"
   xmlns="http://www.w3.org/2000/svg"
   xmlns:svg="http://www.w3.org/2000/svg">
  <sodipodi:namedview
     id="namedview976"
     pagecolor="#ffffff"
     bordercolor="#000000"
     borderopacity="0.25"
     inkscape:showpageshadow="2"
     inkscape:pageopacity="0.0"
     inkscape:pagecheckerboard="0"
     inkscape:deskcolor="#d1d1d1"
     showgrid="false"
     inkscape:zoom="4.5373535"
     inkscape:cx="34.271079"
     inkscape:cy="38.678935"
     inkscape:window-width="1920"
     inkscape:window-height="1129"
     inkscape:window-x="0"
     inkscape:window-y="32"
     inkscape:window-maximized="1"
     inkscape:current-layer="svg974" />
  <defs
     id="defs965">
    <clipPath
       id="clip1">
      <path
         d="M 10.390625 0 L 53.546875 0 C 59.285156 0 63.9375 4.652344 63.9375 10.390625 L 63.9375 53.546875 C 63.9375 59.285156 59.285156 63.9375 53.546875 63.9375 L 10.390625 63.9375 C 4.652344 63.9375 0 59.285156 0 53.546875 L 0 10.390625 C 0 4.652344 4.652344 0 10.390625 0 Z M 10.390625 0 "
         id="path962" />
    </clipPath>
  </defs>
  <g
     id="surface1"
     transform="matrix(0.9103779,0,0,0.9103779,2.8651063,2.8651063)">
    <path
       style="fill:#f0f0f0;fill-opacity:1;fill-rule:nonzero;stroke:none"
       d="m 8.492188,3.414062 h 46.210937 c 3.214844,0 5.816406,2.605469 5.816406,5.816407 v 46.210937 c 0,3.214844 -2.601562,5.816406 -5.816406,5.816406 H 8.492188 c -3.210938,0 -5.816407,-2.601562 -5.816407,-5.816406 V 9.230469 c 0,-3.210938 2.605469,-5.816407 5.816407,-5.816407 z m 0,0"
       id="path967" />
    <g
       clip-path="url(#clip1)"
       clip-rule="nonzero"
       id="g971">
      <path
         style="fill:#0761cc;fill-opacity:1;fill-rule:nonzero;stroke:none"
         d="m 32.324219,64.230469 -28.9375,0.0625 L 2.472656,63.894531 1.558594,63.492188 0.765625,62.546875 -0.03125,61.601562 -0.207031,60.636719 -0.378906,59.671875 -0.292969,31.183594 -0.207031,2.699219 1.027344,1.042969 1.855469,0.425781 2.679688,-0.191406 h 58.578124 l 1.65625,1.234375 0.613282,0.828125 0.617187,0.828125 v 58.578125 l -0.617187,0.824218 -0.613282,0.828126 -1.65625,1.234374 z m -6.339844,-9.496094 h 4.070313 l 0.71875,-0.71875 V 45.875 l -0.71875,-0.71875 h -8.140626 l -0.71875,0.71875 v 8.140625 l 0.71875,0.71875 z m 11.972656,0 h 4.070313 l 0.71875,-0.71875 V 45.875 l -0.71875,-0.71875 h -8.140625 l -0.71875,0.71875 v 8.140625 l 0.71875,0.71875 z m 11.972657,0 H 54 l 0.71875,-0.71875 V 45.875 L 54,45.15625 h -8.140625 l -0.71875,0.71875 v 8.140625 l 0.71875,0.71875 z M 14.011719,42.761719 h 4.070312 l 0.71875,-0.71875 v -8.140625 l -0.71875,-0.71875 H 9.941406 l -0.71875,0.71875 v 8.140625 l 0.71875,0.71875 z m 23.945312,0 h 4.070313 l 0.71875,-0.71875 v -8.140625 l -0.71875,-0.71875 h -8.140625 l -0.71875,0.71875 v 8.140625 l 0.71875,0.71875 z m 11.972657,0 H 54 l 0.71875,-0.71875 V 33.902344 L 54,33.183594 h -8.140625 l -0.71875,0.71875 v 8.140625 l 0.71875,0.71875 z M 14.011719,30.789062 h 4.070312 l 0.71875,-0.71875 v -8.140624 l -0.71875,-0.71875 H 9.941406 l -0.71875,0.71875 v 8.140624 l 0.71875,0.71875 z m 11.972656,0 h 4.070313 l 0.71875,-0.71875 v -8.140624 l -0.71875,-0.71875 h -8.140626 l -0.71875,0.71875 v 8.140624 l 0.71875,0.71875 z m 23.945313,0 H 54 l 0.71875,-0.71875 V 21.929688 L 54,21.210938 h -8.140625 l -0.71875,0.71875 v 8.140624 l 0.71875,0.71875 z M 14.011719,18.816406 h 4.070312 l 0.71875,-0.71875 V 9.957031 l -0.71875,-0.71875 H 9.941406 l -0.71875,0.71875 v 8.140625 l 0.71875,0.71875 z m 11.972656,0 h 4.070313 l 0.71875,-0.71875 V 9.957031 l -0.71875,-0.71875 h -8.140626 l -0.71875,0.71875 v 8.140625 l 0.71875,0.71875 z m 11.972656,0 h 4.070313 l 0.71875,-0.71875 V 9.957031 l -0.71875,-0.71875 h -8.140625 l -0.71875,0.71875 v 8.140625 l 0.71875,0.71875 z m 0,0"
         id="path969" />
    </g>
  </g>
</svg>
