<?xml version="1.0" encoding="UTF-8"?>
<svg xmlns="http://www.w3.org/2000/svg" xmlns:xlink="http://www.w3.org/1999/xlink" width="64px" height="64px" viewBox="0 0 64 64" version="1.1">
<g id="surface1">
<path style=" stroke:none;fill-rule:nonzero;fill:rgb(94.901961%,94.901961%,94.901961%);fill-opacity:1;" d="M 63.910156 31.953125 C 63.910156 14.308594 49.601562 0 31.953125 0 C 14.308594 0 0 14.308594 0 31.953125 C 0 49.601562 14.308594 63.910156 31.953125 63.910156 C 49.601562 63.910156 63.910156 49.601562 63.910156 31.953125 Z M 63.910156 31.953125 "/>
<path style=" stroke:none;fill-rule:nonzero;fill:rgb(37.64706%,37.64706%,37.64706%);fill-opacity:1;" d="M 20.949219 49.171875 C 21.0625 48.875 21.535156 48.273438 21.996094 47.832031 C 23.457031 46.441406 23.40625 46.160156 21.296875 43.941406 C 19.621094 42.183594 18.539062 40.472656 17.898438 38.589844 C 17.773438 38.21875 16.078125 37.550781 15.269531 37.550781 C 14.789062 37.550781 14.789062 37.566406 15.078125 38.535156 C 15.242188 39.078125 15.582031 39.742188 15.839844 40.011719 C 16.09375 40.28125 16.238281 40.601562 16.164062 40.722656 C 16.089844 40.84375 16.3125 41.089844 16.65625 41.269531 L 17.285156 41.59375 L 16.9375 42.6875 L 16.585938 43.78125 L 15.890625 42.957031 C 14.949219 41.847656 14.484375 40.796875 13.886719 38.453125 C 13.492188 36.914062 13.433594 36.394531 13.625 36.105469 C 13.757812 35.902344 13.949219 35.75 14.050781 35.765625 C 14.148438 35.78125 14.773438 35.859375 15.4375 35.9375 L 16.648438 36.082031 L 17.519531 34.800781 C 18.453125 33.425781 18.570312 32.765625 18.144531 31.335938 C 17.890625 30.492188 17.214844 29.691406 16.964844 29.941406 C 16.886719 30.019531 16.957031 30.332031 17.121094 30.636719 C 17.382812 31.128906 17.375 31.222656 17.050781 31.460938 C 16.847656 31.609375 16.683594 31.972656 16.683594 32.269531 C 16.683594 32.84375 16.339844 33.070312 15.480469 33.070312 C 14.828125 33.070312 14.375 32.132812 13.574219 29.128906 C 13.082031 27.28125 13.050781 26.941406 13.273438 26.003906 C 13.414062 25.425781 13.46875 24.714844 13.394531 24.425781 C 13.25 23.859375 13.453125 23.738281 13.863281 24.148438 C 14.242188 24.527344 14.40625 24.210938 14.113281 23.664062 L 13.855469 23.179688 L 14.609375 23.625 C 15.175781 23.960938 15.726562 24.070312 16.824219 24.074219 C 18.640625 24.074219 20.023438 24.570312 22.691406 26.183594 C 24.757812 27.429688 26.402344 28.164062 27.144531 28.164062 C 27.78125 28.164062 28.027344 27.300781 27.753906 26.023438 C 27.570312 25.171875 27.425781 24.9375 27.011719 24.832031 C 26.578125 24.722656 26.496094 24.574219 26.496094 23.871094 C 26.496094 23.277344 26.585938 23.042969 26.816406 23.042969 C 27.214844 23.042969 27.214844 22.84375 26.816406 20.777344 C 26.621094 19.742188 26.371094 19.042969 26.164062 18.925781 C 25.902344 18.78125 25.855469 18.546875 25.964844 17.910156 C 26.09375 17.152344 26.058594 17.074219 25.554688 16.949219 C 24.441406 16.667969 23.90625 17.308594 24.324219 18.417969 C 24.609375 19.171875 24.507812 19.375 24.046875 18.992188 C 23.585938 18.609375 23.628906 17.222656 24.113281 16.78125 C 24.328125 16.589844 24.855469 16.429688 25.285156 16.429688 C 25.851562 16.429688 26.070312 16.335938 26.070312 16.097656 C 26.25 15.527344 26.492188 16.289062 26.496094 16.519531 C 26.496094 16.789062 26.695312 17.265625 26.9375 17.574219 C 27.265625 17.988281 27.347656 18.304688 27.246094 18.761719 C 27.03125 19.738281 27.753906 23.015625 28.242188 23.277344 C 28.585938 23.460938 28.679688 23.386719 28.886719 22.785156 C 29.023438 22.398438 29.4375 21.492188 29.8125 20.773438 C 30.691406 19.085938 30.890625 18.078125 30.433594 17.625 C 30.25 17.4375 30.160156 17.179688 30.242188 17.046875 C 30.324219 16.914062 30.375 16.21875 30.359375 15.5 C 30.324219 14.136719 30.695312 11.191406 30.957031 10.714844 C 31.046875 10.550781 31.253906 10.910156 31.480469 11.628906 C 31.886719 12.917969 32.164062 12.984375 32.378906 11.832031 C 32.453125 11.425781 32.59375 11.046875 32.683594 10.988281 C 32.863281 10.878906 32.910156 11.109375 33.441406 14.664062 C 33.738281 16.652344 33.867188 17.078125 34.207031 17.183594 C 34.898438 17.40625 35.304688 18.25 35.148438 19.148438 C 35.074219 19.589844 35.011719 20.238281 35.015625 20.589844 C 35.019531 21.863281 36.136719 30.40625 36.324219 30.636719 C 36.433594 30.765625 37.746094 31.035156 39.242188 31.238281 C 42.605469 31.691406 43.203125 31.875 44.175781 32.742188 C 45.972656 34.347656 46.957031 34.296875 48.261719 32.527344 C 49.191406 31.273438 49.738281 30.832031 50.660156 30.605469 C 51.792969 30.328125 53.164062 31.324219 53.164062 32.425781 C 53.164062 32.667969 52.925781 33.222656 52.632812 33.664062 C 51.597656 35.226562 51.722656 36.484375 52.910156 36.484375 C 53.3125 36.484375 53.398438 36.546875 53.226562 36.71875 C 53.097656 36.847656 52.625 36.953125 52.179688 36.953125 C 51.183594 36.953125 50.601562 36.335938 50.601562 35.285156 C 50.601562 34.847656 50.433594 34.394531 50.179688 34.140625 C 49.730469 33.6875 49.535156 33.71875 48.074219 34.464844 C 47.582031 34.714844 47.089844 34.789062 46.476562 34.707031 L 45.589844 34.585938 L 45.515625 36.441406 C 45.320312 41.210938 45.3125 41.113281 46.285156 43.636719 C 46.78125 44.933594 47.1875 46.0625 47.1875 46.144531 C 47.1875 46.226562 46.804688 46.296875 46.335938 46.296875 C 45.644531 46.296875 45.484375 46.371094 45.484375 46.695312 C 45.484375 46.917969 45.332031 47.222656 45.148438 47.375 C 44.695312 47.75 44.203125 48.738281 44.203125 49.273438 C 44.203125 49.660156 44.070312 49.710938 43.027344 49.710938 C 42.382812 49.710938 41.855469 49.65625 41.855469 49.589844 C 41.855469 49.289062 42.410156 48.460938 43.167969 47.632812 C 43.617188 47.136719 43.988281 46.632812 43.988281 46.515625 C 43.988281 46.378906 43.066406 46.296875 41.535156 46.296875 C 39.136719 46.296875 39.082031 46.304688 39.078125 46.777344 C 39.078125 47.039062 38.835938 47.480469 38.546875 47.757812 C 38.183594 48.101562 38.015625 48.492188 38.015625 48.984375 L 38.015625 49.710938 L 36.734375 49.710938 C 36.03125 49.710938 35.457031 49.621094 35.457031 49.511719 C 35.457031 49.40625 35.9375 48.792969 36.523438 48.148438 C 37.476562 47.105469 37.875 46.292969 37.429688 46.296875 C 37.339844 46.300781 36.742188 46.441406 36.097656 46.617188 C 34.675781 46.996094 34.535156 47.003906 34.726562 46.691406 C 34.808594 46.558594 34.667969 46.292969 34.410156 46.097656 L 33.945312 45.746094 L 34.394531 44.730469 C 34.699219 44.042969 34.800781 43.511719 34.707031 43.085938 C 34.578125 42.507812 34.492188 42.457031 33.652344 42.457031 C 33.148438 42.457031 32.457031 42.398438 32.117188 42.332031 C 31.566406 42.222656 31.472656 42.285156 31.246094 42.917969 C 31.070312 43.410156 31.054688 43.890625 31.191406 44.484375 C 31.300781 44.953125 31.394531 45.398438 31.398438 45.476562 C 31.398438 45.558594 30.765625 45.832031 29.992188 46.089844 C 28.839844 46.472656 28.273438 46.539062 26.949219 46.445312 C 26.054688 46.382812 25.105469 46.261719 24.84375 46.179688 C 24.417969 46.050781 24.363281 46.109375 24.363281 46.660156 C 24.363281 47.054688 24.164062 47.476562 23.828125 47.789062 C 23.46875 48.128906 23.296875 48.519531 23.296875 49 L 23.296875 49.710938 L 22.019531 49.710938 C 21.230469 49.628906 20.609375 50.074219 20.953125 49.171875 Z M 20.949219 49.171875 "/>
</g>
</svg>
