<svg xmlns="http://www.w3.org/2000/svg" viewBox="0 0 64 64">
<path fill="#f2f2f2" d="M63.91 31.95C63.91 14.31 49.6 0 31.95 0S0 14.31 0 31.95s14.31 31.96 31.95 31.96 31.96-14.31 31.96-31.96z"/>
<path fill="#606060" d="M20.95 49.17c.11-.3.59-.9 1.05-1.34 1.46-1.39 1.41-1.67-.7-3.89-1.68-1.76-2.76-3.47-3.4-5.35-.12-.37-1.82-1.04-2.63-1.04-.48 0-.48.02-.19.97.16.54.5 1.21.76 1.48.25.27.4.59.32.71-.07.12.15.37.49.55l.63.32-.35 1.09-.35 1.09-.69-.82c-.94-1.11-1.41-2.16-2-4.5-.4-1.54-.46-2.06-.27-2.35.13-.2.32-.35.43-.33.1.02.72.1 1.39.18l1.21.14.87-1.28c.93-1.38 1.05-2.04.62-3.47-.25-.84-.93-1.64-1.18-1.39-.08.08-.01.39.15.7.26.49.25.58-.07.82-.2.15-.37.51-.37.81 0 .57-.34.8-1.2.8-.65 0-1.11-.94-1.91-3.94-.49-1.85-.52-2.19-.3-3.12.14-.58.2-1.29.12-1.58-.14-.57.06-.69.47-.28.38.38.54.06.25-.45l-.26-.48.75.45c.57.33 1.12.44 2.21.44 1.82 0 3.2.5 5.87 2.11 2.07 1.25 3.71 1.98 4.45 1.98.64 0 .88-.86.61-2.14-.18-.85-.33-1.09-.74-1.19-.43-.11-.51-.26-.51-.96 0-.59.09-.83.32-.83.4 0 .4-.2.02-2.27-.2-1.03-.45-1.73-.65-1.85-.26-.14-.31-.38-.2-1.02.13-.76.1-.84-.39-.96-1.11-.28-1.65.36-1.23 1.47.28.75.18.96-.26.57-.46-.38-.42-1.77.07-2.21.21-.19.74-.35 1.17-.35.57 0 .78-.09.78-.33.18-.57.42.09.42.32 0 .27.2.75.44 1.06.33.41.41.73.31 1.19-.21.98.5 4.25.99 4.51.34.18.43.11.64-.49.14-.39.55-1.29.93-2.01.88-1.69 1.08-2.7.62-3.15-.18-.18-.27-.44-.19-.58.08-.13.13-.83.11-1.55-.04-1.36.33-4.31.59-4.79.09-.16.3.2.52.91.41 1.29.69 1.36.9.18.07-.41.21-.79.3-.85.18-.11.23.12.76 3.68.3 1.99.43 2.41.77 2.52.69.22 1.1 1.07.94 1.97-.07.44-.13 1.09-.13 1.44 0 1.27 1.12 9.82 1.31 10.05.11.13 1.42.4 2.92.6 3.36.45 3.96.64 4.93 1.5 1.8 1.61 2.78 1.55 4.09-.22.93-1.25 1.48-1.69 2.4-1.92 1.13-.28 2.5.72 2.5 1.82 0 .24-.24.8-.53 1.24-1.04 1.56-.91 2.82.29 2.82.4 0 .49.06.32.23-.13.13-.6.23-1.05.23-.99 0-1.58-.62-1.58-1.67 0-.44-.17-.89-.42-1.14-.45-.45-.65-.42-2.11.32-.49.25-.98.32-1.6.24l-.89-.12-.07 1.86c-.19 4.77-.2 4.67.77 7.2.5 1.3.9 2.43.9 2.51s-.38.07-.85.07c-.69 0-.85.07-.85.4 0 .22-.15.53-.34.68-.45.38-.94 1.37-.94 1.9 0 .39-.13.44-1.18.44-.64 0-1.17-.05-1.17-.12 0-.3.55-1.13 1.31-1.96.45-.5.82-1 .82-1.12 0-.14-.92-.22-2.45-.22-2.4 0-2.45.01-2.46.48 0 .26-.24.7-.53.98-.36.34-.53.73-.53 1.22v.73h-1.28c-.7 0-1.28-.09-1.28-.2 0-.1.48-.72 1.07-1.36.95-1.04 1.35-1.86.91-1.85-.09 0-.69.14-1.33.32-1.42.38-1.56.39-1.37.08.08-.13-.05-.4-.31-.6l-.46-.35.45-1.02c.3-.69.4-1.22.31-1.64-.13-.58-.22-.63-1.06-.63-.5 0-1.19-.06-1.53-.13-.55-.11-.65-.05-.87.58-.18.49-.19.97-.06 1.57.11.47.2.91.2.99 0 .08-.63.35-1.41.61-1.15.38-1.72.45-3.04.35-.89-.06-1.84-.18-2.11-.26-.43-.13-.48-.07-.48.48 0 .39-.2.81-.54 1.12-.36.34-.53.73-.53 1.21v.71h-1.28c-.79-.08-1.41.36-1.07-.54z"/>
</svg>
