<?xml version="1.0" encoding="UTF-8"?>
<svg xmlns="http://www.w3.org/2000/svg" xmlns:xlink="http://www.w3.org/1999/xlink" width="64px" height="64px" viewBox="0 0 64 64" version="1.1">
<defs>
<clipPath id="clip1">
  <path d="M 7 7 L 57 7 L 57 57 L 7 57 Z M 7 7 "/>
</clipPath>
<clipPath id="clip2">
  <path d="M 56.839844 32.03125 C 56.839844 18.332031 45.734375 7.222656 32.03125 7.222656 C 18.332031 7.222656 7.222656 18.332031 7.222656 32.03125 C 7.222656 45.734375 18.332031 56.839844 32.03125 56.839844 C 45.734375 56.839844 56.839844 45.734375 56.839844 32.03125 Z M 56.839844 32.03125 "/>
</clipPath>
</defs>
<g id="surface2">
<path style=" stroke:none;fill-rule:nonzero;fill:rgb(94.901961%,94.901961%,94.901961%);fill-opacity:1;" d="M 64.066406 32.03125 C 64.066406 14.339844 49.722656 0 32.03125 0 C 14.339844 0 0 14.339844 0 32.03125 C 0 49.722656 14.339844 64.066406 32.03125 64.066406 C 49.722656 64.066406 64.066406 49.722656 64.066406 32.03125 Z M 64.066406 32.03125 "/>
<g clip-path="url(#clip1)" clip-rule="nonzero">
<g clip-path="url(#clip2)" clip-rule="nonzero">
<path style=" stroke:none;fill-rule:nonzero;fill:rgb(1.960784%,42.745098%,37.64706%);fill-opacity:1;" d="M 33.875 45.582031 C 33.878906 38.773438 34.140625 32.265625 34.464844 31.121094 C 36.402344 24.230469 47.09375 20.347656 50.582031 25.265625 C 52.691406 28.234375 50.699219 32.636719 46.894531 33.40625 C 45.285156 33.730469 44.917969 34.058594 44.917969 35.179688 C 44.917969 36.402344 45.148438 36.546875 47.039062 36.488281 C 49.476562 36.417969 52.601562 34.515625 53.929688 32.300781 C 55.949219 28.929688 54.195312 22.605469 50.761719 20.851562 C 48.863281 19.882812 43.578125 19.835938 40.453125 20.753906 C 39.011719 21.179688 36.949219 22.5625 35.046875 24.375 L 31.976562 27.304688 L 30.03125 25.0625 C 27.140625 21.734375 24.238281 20.480469 18.734375 20.179688 C 15.480469 19.691406 14.300781 19.703125 12.128906 21.847656 C 8.441406 25.484375 8.246094 31.300781 11.714844 34.175781 C 15.28125 37.136719 19.988281 37.636719 19.605469 35.015625 C 19.476562 34.148438 18.894531 33.691406 17.5625 33.425781 C 13.753906 32.664062 11.839844 29.609375 13.179688 26.445312 C 15.503906 20.960938 25.382812 22.640625 28.890625 29.121094 C 30.121094 31.394531 30.199219 32.214844 30.371094 44.515625 L 30.550781 57.507812 L 28.902344 57.507812 C 26.773438 57.507812 21.3125 55.648438 18.273438 53.890625 C 15.042969 52.023438 10.367188 46.859375 8.363281 42.949219 L 6.714844 39.726562 L 10.421875 41.632812 C 14.976562 43.972656 19.890625 44.277344 23 42.40625 C 24.996094 41.207031 27.050781 37.527344 27.050781 35.15625 C 27.050781 32.792969 24.992188 29.105469 23 27.890625 C 20.417969 26.316406 16.667969 26.535156 16.417969 28.277344 C 16.273438 29.289062 16.59375 29.570312 18.265625 29.878906 C 21.605469 30.496094 23.109375 32.046875 23.109375 34.867188 C 23.109375 36.910156 22.824219 37.527344 21.292969 38.796875 C 19.703125 40.121094 19.109375 40.273438 16.460938 40.058594 C 12.664062 39.746094 9.226562 37.492188 7.25 34.011719 C 5.386719 30.734375 5.390625 25.707031 7.257812 20.90625 C 10.507812 12.558594 21.378906 6.097656 32.171875 6.097656 C 45.445312 6.097656 57.0625 15.109375 58.078125 26.191406 C 58.503906 30.8125 57.945312 32.957031 55.613281 35.640625 C 53.027344 38.625 49.9375 40.183594 46.617188 40.183594 C 43.6875 40.183594 41.574219 38.628906 40.902344 35.984375 C 40.34375 33.789062 41.945312 30.800781 43.910156 30.367188 C 47.316406 29.621094 47.535156 29.484375 47.359375 28.261719 C 47.117188 26.570312 43.859375 26.359375 41.375 27.875 C 36.328125 30.945312 35.832031 37.667969 40.339844 41.824219 C 43.171875 44.433594 50.140625 44.023438 54.976562 40.957031 C 56.144531 40.214844 57.097656 39.746094 57.097656 39.914062 C 57.097656 40.078125 56.304688 41.765625 55.335938 43.660156 C 51.886719 50.402344 45.308594 55.335938 37.3125 57.175781 L 33.871094 57.964844 Z M 33.875 45.582031 "/>
</g>
</g>
</g>
</svg>
