<?xml version="1.0" encoding="UTF-8" standalone="no"?>
<svg
   width="64"
   height="64"
   version="1"
   id="svg12"
   sodipodi:docname="theme.svg"
   inkscape:version="1.2.2 (b0a8486541, 2022-12-01)"
   xmlns:inkscape="http://www.inkscape.org/namespaces/inkscape"
   xmlns:sodipodi="http://sodipodi.sourceforge.net/DTD/sodipodi-0.dtd"
   xmlns="http://www.w3.org/2000/svg"
   xmlns:svg="http://www.w3.org/2000/svg">
  <defs
     id="defs16" />
  <sodipodi:namedview
     id="namedview14"
     pagecolor="#ffffff"
     bordercolor="#000000"
     borderopacity="0.25"
     inkscape:showpageshadow="2"
     inkscape:pageopacity="0.0"
     inkscape:pagecheckerboard="0"
     inkscape:deskcolor="#d1d1d1"
     showgrid="false"
     inkscape:zoom="8.6977824"
     inkscape:cx="-6.4384227"
     inkscape:cy="42.482093"
     inkscape:window-width="1920"
     inkscape:window-height="1129"
     inkscape:window-x="0"
     inkscape:window-y="32"
     inkscape:window-maximized="1"
     inkscape:current-layer="svg12" />
  <path
     id="path4"
     style="fill:#546e7a"
     d="m 32,3 c -1.112543,0 -2.223684,0.4264698 -3.076172,1.2792969 l -5.308594,5.7089843 h -9.128906 c -2.480949,0 -4.478515,1.9985308 -4.478516,4.4804688 v 9.132812 l -5.7070308,5.308594 c -1.7656255,1.642744 -1.7049761,4.450595 0,6.15625 L 10.007812,40.375 v 9.132812 c 0,2.481936 1.997567,4.482422 4.478516,4.482422 h 9.128906 l 5.308594,5.707032 c 1.642097,1.76632 4.447367,1.705654 6.152344,0 l 5.308594,-5.707032 h 9.128906 c 2.480949,0 4.478516,-2.000486 4.478516,-4.482422 V 40.375 l 5.707031,-5.308594 c 1.765666,-1.642699 1.704976,-4.450593 0,-6.15625 L 53.992188,23.601562 V 14.46875 c 0,-2.481938 -1.997567,-4.4804687 -4.478516,-4.4804688 H 40.384766 L 35.076172,4.2792969 C 34.255131,3.39613 33.112543,3 32,3 Z m 0,14 v 30 1 c -8.498943,0 -15,-6.501056 -15,-15 0,-1 0,0 0,-1 0,-8.498943 6.501057,-15 15,-15 z"
     sodipodi:nodetypes="sccssccccssccccssccccssccscccccc" />
</svg>
