<svg xmlns="http://www.w3.org/2000/svg" viewBox="0 0 64 64">
<path fill="#546e7a" d="M32 3c-1.11 0-2.22.43-3.08 1.28l-5.31 5.71h-9.13c-2.48 0-4.48 2-4.48 4.48v9.13l-5.71 5.31c-1.77 1.64-1.7 4.45 0 6.16L10 40.38v9.13c0 2.48 2 4.48 4.48 4.48h9.13l5.31 5.71c1.64 1.77 4.45 1.71 6.15 0l5.31-5.71h9.13c2.48 0 4.48-2 4.48-4.48V40.38l5.71-5.31c1.77-1.64 1.7-4.45 0-6.16L54 23.6v-9.13c0-2.48-2-4.48-4.48-4.48h-9.13L35.08 4.28C34.26 3.4 33.11 3 32 3zm0 14v31c-8.5 0-15-6.5-15-15v-1c0-8.5 6.5-15 15-15z"/>
</svg>
